<?xml version="1.0" standalone="no"?>
<!DOCTYPE svg PUBLIC "-//W3C//DTD SVG 20010904//EN"
 "http://www.w3.org/TR/2001/REC-SVG-20010904/DTD/svg10.dtd">
<svg version="1.0" xmlns="http://www.w3.org/2000/svg"
 width="512.000000pt" height="512.000000pt" viewBox="0 0 512.000000 512.000000"
 preserveAspectRatio="xMidYMid meet">

<g transform="translate(0.000000,512.000000) scale(0.100000,-0.100000)"
fill="#070675" stroke="none">
<path d="M2380 4940 c-587 -49 -1136 -306 -1531 -717 -362 -377 -582 -830
-655 -1348 -23 -162 -23 -468 0 -630 77 -546 329 -1040 719 -1411 782 -743
1962 -873 2880 -316 170 103 304 209 452 357 664 662 878 1645 549 2522 -163
434 -448 810 -831 1095 -221 164 -536 310 -827 384 -217 55 -540 83 -756 64z
m354 -540 c198 -50 363 -187 452 -375 70 -147 69 -132 69 -810 0 -607 0 -610
-23 -690 -62 -215 -217 -386 -422 -468 -183 -72 -374 -62 -560 29 -80 39 -109
61 -180 133 -96 97 -145 179 -182 306 -23 80 -23 83 -23 690 0 553 2 616 18
675 40 146 131 291 235 375 69 56 196 119 277 139 90 22 246 20 339 -4z
m-1319 -715 c130 -34 235 -107 283 -199 21 -41 26 -65 27 -121 0 -75 -26 -155
-51 -155 -22 0 -24 16 -8 61 48 137 -11 261 -161 334 -56 28 -169 55 -230 55
-165 -1 -321 -112 -410 -293 -71 -147 -90 -276 -59 -425 42 -206 163 -351 390
-465 105 -53 173 -70 264 -65 43 1 82 6 86 10 4 4 2 45 -4 90 -7 46 -12 185
-12 310 0 222 1 228 21 239 15 8 28 8 44 1 22 -10 22 -14 28 -254 3 -162 10
-267 21 -314 81 -377 370 -659 750 -734 83 -17 267 -14 353 4 367 79 650 362
729 730 10 47 17 154 21 314 6 228 7 244 26 253 14 8 27 8 43 0 l24 -11 0
-227 c0 -126 -5 -265 -12 -311 -6 -45 -8 -86 -4 -90 4 -4 43 -9 86 -10 91 -5
159 12 264 65 228 115 347 257 390 466 31 147 12 277 -59 424 -89 181 -245
292 -410 293 -61 0 -174 -27 -230 -55 -150 -73 -209 -197 -160 -334 16 -46 9
-69 -17 -58 -18 7 -48 98 -48 147 0 73 30 141 90 201 154 154 428 186 610 69
114 -73 221 -232 260 -386 24 -94 26 -241 4 -334 -33 -143 -124 -281 -242
-370 -85 -64 -248 -146 -332 -166 -62 -16 -152 -15 -206 1 -18 6 -25 -4 -58
-83 -123 -297 -393 -534 -699 -611 l-72 -19 -3 -300 -2 -301 237 -3 c269 -3
294 -9 340 -79 46 -70 40 -155 -15 -221 -50 -59 -31 -58 -741 -58 -436 0 -659
4 -678 11 -38 14 -71 46 -95 93 -41 79 -2 192 79 232 33 17 66 19 276 22 l237
3 -2 301 -3 300 -72 18 c-306 78 -576 314 -699 612 -33 79 -40 89 -58 83 -12
-3 -48 -9 -81 -12 -82 -7 -167 15 -290 77 -184 92 -289 191 -360 335 -46 94
-65 180 -65 296 0 277 166 539 388 610 71 23 197 24 277 4z m-49 -294 c49 -22
80 -60 94 -112 17 -63 -2 -111 -76 -190 -41 -44 -64 -77 -64 -92 0 -12 20 -54
45 -91 63 -96 59 -153 -15 -191 -33 -17 -106 -20 -144 -5 -49 18 -112 88 -144
158 -72 155 -54 345 42 459 62 74 178 102 262 64z m2572 -7 c60 -30 96 -69
128 -139 51 -111 48 -256 -8 -377 -32 -70 -95 -140 -144 -158 -38 -15 -111
-12 -144 5 -74 38 -78 95 -15 191 25 37 45 79 45 91 0 15 -23 48 -64 92 -74
79 -93 127 -76 190 31 115 160 164 278 105z"/>
<path d="M2485 4320 c-244 -38 -432 -200 -499 -429 -9 -30 -16 -60 -16 -67 0
-9 43 -13 168 -16 145 -3 171 -6 201 -23 66 -39 98 -111 79 -182 -11 -46 -34
-75 -79 -102 -31 -19 -50 -21 -206 -21 l-173 0 0 -50 0 -50 165 0 c184 0 214
-7 258 -59 71 -85 47 -197 -53 -248 -41 -21 -58 -23 -208 -23 l-163 0 3 -47 3
-48 180 -5 c153 -4 184 -8 207 -24 70 -47 93 -154 48 -219 -48 -69 -56 -72
-252 -75 -206 -4 -195 4 -155 -113 33 -97 83 -173 164 -248 231 -217 579 -217
808 1 79 75 130 152 162 247 40 117 51 109 -154 113 -168 3 -180 4 -209 26
-44 34 -66 77 -66 131 0 58 21 102 64 133 31 21 45 23 213 28 l180 5 3 48 3
47 -163 0 c-137 0 -170 3 -204 19 -103 47 -129 166 -57 252 44 52 74 59 258
59 l165 0 0 50 0 50 -171 0 c-156 0 -175 2 -209 21 -93 53 -110 191 -32 262
40 37 91 46 250 47 171 0 161 -5 136 81 -58 199 -226 364 -419 412 -80 20
-169 27 -230 17z"/>
<path d="M1960 3640 l0 -60 160 0 c147 0 162 2 180 20 25 25 26 62 2 83 -16
14 -44 17 -180 17 l-162 0 0 -60z"/>
<path d="M2817 3682 c-23 -25 -21 -58 3 -82 18 -18 33 -20 180 -20 l160 0 0
60 0 60 -163 0 c-146 0 -166 -2 -180 -18z"/>
<path d="M1960 3221 l0 -61 163 0 c146 0 166 2 180 18 21 23 22 52 3 78 -13
17 -30 19 -180 22 l-166 3 0 -60z"/>
<path d="M2840 3273 c-40 -14 -53 -69 -22 -96 16 -14 44 -17 180 -17 l162 0 0
60 0 60 -152 -1 c-84 0 -160 -3 -168 -6z"/>
<path d="M1960 2790 l0 -60 158 0 c176 0 202 8 202 59 0 55 -20 61 -198 61
l-162 0 0 -60z"/>
<path d="M2817 2832 c-24 -26 -21 -68 5 -86 18 -13 54 -16 180 -16 l158 0 0
60 0 60 -163 0 c-146 0 -166 -2 -180 -18z"/>
<path d="M2480 1355 l0 -295 80 0 80 0 0 295 0 295 -80 0 -80 0 0 -295z"/>
<path d="M1913 950 c-49 -20 -58 -92 -17 -131 l26 -24 638 0 638 0 26 24 c32
30 34 78 7 112 l-19 24 -639 2 c-356 1 -648 -2 -660 -7z"/>
<path d="M1201 3344 c-127 -64 -177 -262 -111 -438 29 -77 100 -152 153 -161
52 -10 98 5 116 37 14 25 13 29 -17 75 -17 26 -41 67 -53 91 -27 57 -15 92 52
157 59 58 79 92 79 135 0 49 -27 90 -73 111 -56 25 -83 24 -146 -7z"/>
<path d="M3773 3351 c-46 -22 -73 -62 -73 -111 0 -43 20 -77 79 -135 67 -65
79 -100 52 -157 -12 -24 -36 -65 -53 -91 -30 -46 -31 -50 -17 -75 18 -32 64
-47 116 -37 55 10 122 82 153 165 20 53 25 83 25 161 0 90 -2 100 -35 165 -28
54 -45 74 -81 97 -61 38 -112 43 -166 18z"/>
</g>
</svg>
